<svg width="50" height="50" viewBox="0 0 50 50" fill="none" xmlns="http://www.w3.org/2000/svg">
<g clip-path="url(#clip0_108_822)">
<rect width="50" height="50" rx="25" fill="#F7E6FF"/>
<path d="M25 16.1284C19.9023 16.1284 15.7817 20.2766 15.7817 25.3467C15.7817 27.7916 16.7529 30.1363 18.4817 31.865C19.3377 32.721 20.3539 33.4 21.4723 33.8633C22.5907 34.3266 23.7894 34.565 25 34.565C27.4448 34.565 29.7896 33.5938 31.5183 31.865C33.2471 30.1363 34.2183 27.7916 34.2183 25.3467C34.2183 24.1361 33.9799 22.9374 33.5166 21.819C33.0533 20.7006 32.3743 19.6844 31.5183 18.8284C30.6623 17.9724 29.6461 17.2934 28.5277 16.8301C27.4093 16.3669 26.2106 16.1284 25 16.1284ZM22.9259 21.4935C23.7279 21.4935 24.493 21.8714 25 22.4614C25.507 21.8714 26.2721 21.4935 27.0741 21.4935C28.4937 21.4935 29.6091 22.6089 29.6091 24.0285C29.6091 25.7708 28.042 27.1904 25.6637 29.3474L25 29.9559L24.3363 29.3474C21.958 27.1904 20.3909 25.7708 20.3909 24.0285C20.3909 22.6089 21.5063 21.4935 22.9259 21.4935Z" fill="#C344FF"/>
<path d="M25 35.6929C19.9023 35.6929 15.7817 39.8411 15.7817 44.9112C15.7817 47.356 16.7529 49.7007 18.4817 51.4295C19.3377 52.2855 20.3539 52.9645 21.4723 53.4278C22.5907 53.891 23.7894 54.1295 25 54.1295C27.4448 54.1295 29.7895 53.1582 31.5183 51.4295C33.2471 49.7007 34.2183 47.356 34.2183 44.9112C34.2183 43.7006 33.9799 42.5019 33.5166 41.3835C33.0533 40.2651 32.3743 39.2488 31.5183 38.3928C30.6623 37.5368 29.6461 36.8578 28.5277 36.3946C27.4093 35.9313 26.2106 35.6929 25 35.6929ZM22.9259 41.0579C23.7279 41.0579 24.493 41.4359 25 42.0258C25.507 41.4359 26.2721 41.0579 27.0741 41.0579C28.4937 41.0579 29.6091 42.1733 29.6091 43.5929C29.6091 45.3352 28.042 46.7548 25.6637 48.9119L25 49.5203L24.3363 48.9119C21.958 46.7548 20.3909 45.3352 20.3909 43.5929C20.3909 42.1733 21.5063 41.0579 22.9259 41.0579Z" fill="#EFCCFF"/>
<path d="M4.42478 15.1177C-0.672933 15.1177 -4.79351 19.2659 -4.79351 24.336C-4.79351 26.7808 -3.8223 29.1255 -2.09353 30.8543C-1.23754 31.7103 -0.22132 32.3893 0.897095 32.8526C2.01551 33.3158 3.21422 33.5543 4.42478 33.5543C6.86963 33.5543 9.21433 32.583 10.9431 30.8543C12.6719 29.1255 13.6431 26.7808 13.6431 24.336C13.6431 23.1254 13.4046 21.9267 12.9414 20.8083C12.4781 19.6899 11.7991 18.6736 10.9431 17.8177C10.0871 16.9617 9.07088 16.2826 7.95247 15.8194C6.83406 15.3561 5.63535 15.1177 4.42478 15.1177ZM2.35067 20.4827C3.15266 20.4827 3.91778 20.8607 4.42478 21.4506C4.93179 20.8607 5.69691 20.4827 6.4989 20.4827C7.91852 20.4827 9.03393 21.5981 9.03393 23.0178C9.03393 24.76 7.46682 26.1796 5.0885 28.3367L4.42478 28.9451L3.76107 28.3367C1.38275 26.1796 -0.184363 24.76 -0.184363 23.0178C-0.184363 21.5981 0.93105 20.4827 2.35067 20.4827Z" fill="#EFCCFF"/>
<path d="M4.42478 35.6929C-0.672936 35.6929 -4.79351 39.8411 -4.79351 44.9112C-4.79351 47.356 -3.8223 49.7007 -2.09354 51.4295C-1.23754 52.2855 -0.221323 52.9645 0.897091 53.4278C2.01551 53.891 3.21422 54.1295 4.42478 54.1295C6.86962 54.1295 9.21433 53.1582 10.9431 51.4295C12.6719 49.7007 13.6431 47.356 13.6431 44.9112C13.6431 43.7006 13.4046 42.5019 12.9414 41.3835C12.4781 40.2651 11.7991 39.2488 10.9431 38.3928C10.0871 37.5368 9.07088 36.8578 7.95247 36.3946C6.83405 35.9313 5.63534 35.6929 4.42478 35.6929ZM2.35066 41.0579C3.15265 41.0579 3.91777 41.4359 4.42478 42.0258C4.93178 41.4359 5.6969 41.0579 6.49889 41.0579C7.91851 41.0579 9.03392 42.1733 9.03392 43.5929C9.03392 45.3352 7.46681 46.7548 5.0885 48.9119L4.42478 49.5203L3.76106 48.9119C1.38274 46.7548 -0.184367 45.3352 -0.184367 43.5929C-0.184367 42.1733 0.931046 41.0579 2.35066 41.0579Z" fill="#EFCCFF"/>
<path d="M25 -5.23584C19.9023 -5.23584 15.7817 -1.08761 15.7817 3.98245C15.7817 6.42729 16.7529 8.772 18.4817 10.5008C19.3377 11.3568 20.3539 12.0358 21.4723 12.499C22.5907 12.9623 23.7894 13.2007 25 13.2007C27.4448 13.2007 29.7896 12.2295 31.5183 10.5008C33.2471 8.772 34.2183 6.42729 34.2183 3.98245C34.2183 2.77189 33.9799 1.57318 33.5166 0.454763C33.0533 -0.663651 32.3743 -1.67987 31.5183 -2.53586C30.6623 -3.39186 29.6461 -4.07088 28.5277 -4.53414C27.4093 -4.9974 26.2106 -5.23584 25 -5.23584ZM22.9259 0.129206C23.7279 0.129206 24.493 0.507155 25 1.09713C25.507 0.507155 26.2721 0.129206 27.0741 0.129206C28.4937 0.129206 29.6091 1.24462 29.6091 2.66424C29.6091 4.40649 28.042 5.82611 25.6637 7.98319L25 8.5916L24.3363 7.98319C21.958 5.82611 20.3909 4.40649 20.3909 2.66424C20.3909 1.24462 21.5063 0.129206 22.9259 0.129206Z" fill="#EFCCFF"/>
<path d="M4.42477 -5.23584C-0.672942 -5.23584 -4.79352 -1.08761 -4.79352 3.98245C-4.79352 6.42729 -3.82231 8.772 -2.09354 10.5008C-1.23755 11.3568 -0.221329 12.0358 0.897085 12.499C2.0155 12.9623 3.21421 13.2007 4.42477 13.2007C6.86962 13.2007 9.21432 12.2295 10.9431 10.5008C12.6719 8.772 13.6431 6.42729 13.6431 3.98245C13.6431 2.77189 13.4046 1.57318 12.9414 0.454763C12.4781 -0.663651 11.7991 -1.67987 10.9431 -2.53586C10.0871 -3.39186 9.07088 -4.07088 7.95246 -4.53414C6.83405 -4.9974 5.63534 -5.23584 4.42477 -5.23584ZM2.35066 0.129206C3.15265 0.129206 3.91777 0.507155 4.42477 1.09713C4.93178 0.507155 5.6969 0.129206 6.49889 0.129206C7.91851 0.129206 9.03392 1.24462 9.03392 2.66424C9.03392 4.40649 7.46681 5.82611 5.08849 7.98319L4.42477 8.5916L3.76106 7.98319C1.38274 5.82611 -0.184372 4.40649 -0.184372 2.66424C-0.184372 1.24462 0.931041 0.129206 2.35066 0.129206Z" fill="#EFCCFF"/>
<path d="M45.5752 -5.23584C40.4775 -5.23584 36.3569 -1.08761 36.3569 3.98245C36.3569 6.42729 37.3281 8.772 39.0569 10.5008C39.9129 11.3568 40.9291 12.0358 42.0475 12.499C43.1659 12.9623 44.3647 13.2007 45.5752 13.2007C48.0201 13.2007 50.3648 12.2295 52.0935 10.5008C53.8223 8.772 54.7935 6.42729 54.7935 3.98245C54.7935 2.77189 54.5551 1.57318 54.0918 0.454763C53.6285 -0.663651 52.9495 -1.67987 52.0935 -2.53586C51.2375 -3.39186 50.2213 -4.07088 49.1029 -4.53414C47.9845 -4.9974 46.7858 -5.23584 45.5752 -5.23584ZM43.5011 0.129206C44.3031 0.129206 45.0682 0.507155 45.5752 1.09713C46.0822 0.507155 46.8473 0.129206 47.6493 0.129206C49.069 0.129206 50.1844 1.24462 50.1844 2.66424C50.1844 4.40649 48.6173 5.82611 46.2389 7.98319L45.5752 8.5916L44.9115 7.98319C42.5332 5.82611 40.9661 4.40649 40.9661 2.66424C40.9661 1.24462 42.0815 0.129206 43.5011 0.129206Z" fill="#EFCCFF"/>
<path d="M45.5752 15.1177C40.4775 15.1177 36.3569 19.2659 36.3569 24.336C36.3569 26.7808 37.3281 29.1255 39.0569 30.8543C39.9129 31.7103 40.9291 32.3893 42.0475 32.8526C43.166 33.3158 44.3647 33.5543 45.5752 33.5543C48.0201 33.5543 50.3648 32.583 52.0935 30.8543C53.8223 29.1255 54.7935 26.7808 54.7935 24.336C54.7935 23.1254 54.5551 21.9267 54.0918 20.8083C53.6286 19.6899 52.9495 18.6736 52.0935 17.8177C51.2375 16.9617 50.2213 16.2826 49.1029 15.8194C47.9845 15.3561 46.7858 15.1177 45.5752 15.1177ZM43.5011 20.4827C44.3031 20.4827 45.0682 20.8607 45.5752 21.4506C46.0822 20.8607 46.8474 20.4827 47.6493 20.4827C49.069 20.4827 50.1844 21.5981 50.1844 23.0178C50.1844 24.76 48.6173 26.1796 46.2389 28.3367L45.5752 28.9451L44.9115 28.3367C42.5332 26.1796 40.9661 24.76 40.9661 23.0178C40.9661 21.5981 42.0815 20.4827 43.5011 20.4827Z" fill="#EFCCFF"/>
<path d="M45.5752 35.6929C40.4775 35.6929 36.3569 39.8411 36.3569 44.9112C36.3569 47.356 37.3281 49.7007 39.0569 51.4295C39.9129 52.2855 40.9291 52.9645 42.0475 53.4278C43.1659 53.891 44.3647 54.1295 45.5752 54.1295C48.0201 54.1295 50.3648 53.1582 52.0935 51.4295C53.8223 49.7007 54.7935 47.356 54.7935 44.9112C54.7935 43.7006 54.5551 42.5019 54.0918 41.3835C53.6286 40.2651 52.9495 39.2488 52.0935 38.3928C51.2375 37.5368 50.2213 36.8578 49.1029 36.3946C47.9845 35.9313 46.7858 35.6929 45.5752 35.6929ZM43.5011 41.0579C44.3031 41.0579 45.0682 41.4359 45.5752 42.0258C46.0822 41.4359 46.8473 41.0579 47.6493 41.0579C49.069 41.0579 50.1844 42.1733 50.1844 43.5929C50.1844 45.3352 48.6173 46.7548 46.2389 48.9119L45.5752 49.5203L44.9115 48.9119C42.5332 46.7548 40.9661 45.3352 40.9661 43.5929C40.9661 42.1733 42.0815 41.0579 43.5011 41.0579Z" fill="#EFCCFF"/>
</g>
<defs>
<clipPath id="clip0_108_822">
<rect width="50" height="50" rx="25" fill="white"/>
</clipPath>
</defs>
</svg>
