<svg width="88" height="19" viewBox="0 0 88 19" fill="none" xmlns="http://www.w3.org/2000/svg">
<path d="M78.984 15.3973L79.0167 10.0394H79.6048L82.6431 5.82488H87.707L82.6104 12.3916H81.3363L78.984 15.3973ZM74.9329 18.3703V1.64307H79.4414V18.3703H74.9329ZM82.6758 18.3703L79.8008 13.4044L82.7411 10.2027L87.8377 18.3703H82.6758Z" fill="black"/>
<path d="M73.5359 9.90829H69.3868C69.365 9.65237 69.2751 9.43185 69.1172 9.24671C68.9593 9.06158 68.7551 8.92001 68.5047 8.822C68.2596 8.71854 67.9874 8.66681 67.6879 8.66681C67.3013 8.66681 66.9691 8.7376 66.6914 8.87917C66.4137 9.02074 66.2776 9.22221 66.2831 9.48357C66.2776 9.66871 66.3566 9.84023 66.5199 9.99813C66.6887 10.156 67.0127 10.2786 67.4919 10.3657L70.0402 10.8231C71.3252 11.0572 72.2808 11.452 72.907 12.0074C73.5386 12.5573 73.8572 13.2951 73.8626 14.2208C73.8572 15.1138 73.5904 15.8897 73.0622 16.5486C72.5395 17.202 71.8234 17.7084 70.9141 18.0677C70.0102 18.4217 68.9784 18.5986 67.8186 18.5986C65.9019 18.5986 64.4018 18.2066 63.3182 17.4225C62.2401 16.6384 61.6384 15.6038 61.5132 14.3188H65.989C66.0489 14.7163 66.245 15.0239 66.5771 15.2417C66.9147 15.4541 67.3394 15.5603 67.8512 15.5603C68.2651 15.5603 68.6054 15.4895 68.8722 15.3479C69.1445 15.2063 69.2833 15.0049 69.2887 14.7435C69.2833 14.5039 69.1635 14.3134 68.9294 14.1718C68.7007 14.0302 68.3413 13.9159 67.8512 13.8287L65.6297 13.4367C64.3501 13.2135 63.3917 12.7887 62.7547 12.1626C62.1176 11.5364 61.8018 10.7305 61.8072 9.74494C61.8018 8.87373 62.0305 8.13592 62.4933 7.53152C62.9616 6.92167 63.6286 6.45884 64.4944 6.14302C65.3656 5.82176 66.3974 5.66113 67.5899 5.66113C69.4031 5.66113 70.8324 6.03684 71.8779 6.78826C72.9288 7.53968 73.4815 8.57969 73.5359 9.90829Z" fill="black"/>
<path d="M54.7439 18.5986C53.4044 18.5986 52.2501 18.3427 51.2809 17.8309C50.3171 17.3136 49.5738 16.5731 49.0511 15.6093C48.5338 14.6401 48.2752 13.4803 48.2752 12.1299C48.2752 10.834 48.5365 9.70138 49.0593 8.73215C49.582 7.76293 50.3198 7.00879 51.2727 6.46973C52.2256 5.93066 53.35 5.66113 54.6459 5.66113C55.5934 5.66113 56.451 5.80815 57.2187 6.10218C57.9865 6.39622 58.6426 6.82366 59.1871 7.3845C59.7316 7.9399 60.1509 8.61509 60.4449 9.41007C60.739 10.205 60.886 11.1008 60.886 12.0972V13.1427H49.68V10.6597H56.7368C56.7314 10.3003 56.6388 9.98452 56.4591 9.71227C56.2849 9.43457 56.048 9.21949 55.7485 9.06703C55.4545 8.90912 55.1196 8.83017 54.7439 8.83017C54.3791 8.83017 54.0442 8.90912 53.7393 9.06703C53.4344 9.21949 53.1894 9.43185 53.0042 9.7041C52.8245 9.97635 52.7292 10.2949 52.7184 10.6597V13.3387C52.7184 13.7416 52.8028 14.101 52.9716 14.4168C53.1404 14.7326 53.3827 14.9804 53.6985 15.1601C54.0143 15.3398 54.3954 15.4296 54.8419 15.4296C55.1523 15.4296 55.4354 15.386 55.6914 15.2989C55.9527 15.2118 56.176 15.0866 56.3611 14.9232C56.5462 14.7544 56.6824 14.5529 56.7695 14.3188H60.886C60.7444 15.19 60.4095 15.9469 59.8813 16.5894C59.3532 17.2265 58.6535 17.722 57.7823 18.0759C56.9165 18.4244 55.9037 18.5986 54.7439 18.5986Z" fill="black"/>
<path d="M39.1066 18.5337C38.2136 18.5337 37.3914 18.2995 36.64 17.8313C35.894 17.363 35.2951 16.6524 34.8431 15.6995C34.3966 14.7466 34.1734 13.546 34.1734 12.0976C34.1734 10.5839 34.4075 9.35329 34.8758 8.40585C35.3495 7.4584 35.9594 6.76416 36.7054 6.32311C37.4568 5.88206 38.2463 5.66153 39.074 5.66153C39.6947 5.66153 40.2392 5.77043 40.7075 5.98823C41.1758 6.20059 41.5678 6.48646 41.8836 6.84583C42.1994 7.19976 42.439 7.58909 42.6024 8.0138H42.6677V1.64307H47.1762V18.3703H42.7004V16.3121H42.6024C42.4281 16.7368 42.1777 17.118 41.851 17.4556C41.5297 17.7877 41.1377 18.0518 40.6748 18.2478C40.2174 18.4384 39.6947 18.5337 39.1066 18.5337ZM40.7728 15.0706C41.1867 15.0706 41.5406 14.9508 41.8346 14.7112C42.1341 14.4662 42.3628 14.1232 42.5207 13.6821C42.684 13.2356 42.7657 12.7075 42.7657 12.0976C42.7657 11.4769 42.684 10.946 42.5207 10.5049C42.3628 10.0584 42.1341 9.71811 41.8346 9.48397C41.5406 9.24439 41.1867 9.1246 40.7728 9.1246C40.359 9.1246 40.0051 9.24439 39.711 9.48397C39.4225 9.71811 39.1992 10.0584 39.0413 10.5049C38.8888 10.946 38.8126 11.4769 38.8126 12.0976C38.8126 12.7183 38.8888 13.252 39.0413 13.6985C39.1992 14.1395 39.4225 14.4798 39.711 14.7194C40.0051 14.9535 40.359 15.0706 40.7728 15.0706Z" fill="black"/>
<path d="M32.9255 1.64307V18.3703H28.417V1.64307H32.9255Z" fill="black"/>
<path d="M26.777 1.64307V18.3703H22.2684V1.64307H26.777Z" fill="black"/>
<path d="M16.1199 18.3701V5.82466H20.6285V18.3701H16.1199ZM18.3742 4.51784C17.7643 4.51784 17.2416 4.31638 16.806 3.91344C16.3704 3.5105 16.1526 3.02589 16.1526 2.45961C16.1526 1.89332 16.3704 1.40871 16.806 1.00577C17.2416 0.602835 17.7643 0.401367 18.3742 0.401367C18.9895 0.401367 19.5122 0.602835 19.9424 1.00577C20.378 1.40871 20.5958 1.89332 20.5958 2.45961C20.5958 3.02589 20.378 3.5105 19.9424 3.91344C19.5122 4.31638 18.9895 4.51784 18.3742 4.51784Z" fill="black"/>
<path d="M0.464294 5.30216V1.64307H15.0026V5.30216H9.97139V18.3703H5.49554V5.30216H0.464294Z" fill="black"/>
</svg>
