<svg width="129" height="29" viewBox="0 0 129 29" fill="none" xmlns="http://www.w3.org/2000/svg">
<path d="M0.060257 7.5419V2.54545H21.5748V7.5419H13.8564V28H7.79108V7.5419H0.060257ZM23.2795 28V8.90909H29.3573V28H23.2795ZM26.3246 6.6843C25.4712 6.6843 24.7379 6.40258 24.1247 5.83913C23.5115 5.2674 23.2049 4.57966 23.2049 3.77592C23.2049 2.98047 23.5115 2.30102 24.1247 1.73757C24.7379 1.16584 25.4712 0.87997 26.3246 0.87997C27.1864 0.87997 27.9197 1.16584 28.5246 1.73757C29.1377 2.30102 29.4443 2.98047 29.4443 3.77592C29.4443 4.57966 29.1377 5.2674 28.5246 5.83913C27.9197 6.40258 27.1864 6.6843 26.3246 6.6843ZM38.0036 2.54545V28H31.9258V2.54545H38.0036ZM46.6499 2.54545V28H40.5721V2.54545H46.6499ZM56.191 28.2734C54.7824 28.2734 53.5022 27.9089 52.3505 27.1797C51.1987 26.4505 50.279 25.3568 49.5913 23.8984C48.9035 22.4401 48.5597 20.6296 48.5597 18.467C48.5597 16.2215 48.9159 14.3737 49.6285 12.9237C50.3411 11.4736 51.2733 10.4006 52.4251 9.70454C53.5851 9.00852 54.8321 8.66051 56.1662 8.66051C57.1688 8.66051 58.0264 8.83452 58.739 9.18253C59.4516 9.52225 60.0399 9.96141 60.5039 10.5C60.9679 11.0386 61.3201 11.5979 61.5604 12.1779H61.6847V2.54545H67.7624V28H61.7468V24.9052H61.5604C61.3035 25.4935 60.9389 26.0445 60.4666 26.5582C59.9943 27.072 59.4019 27.4863 58.6893 27.8011C57.985 28.116 57.1522 28.2734 56.191 28.2734ZM58.304 23.538C59.0414 23.538 59.6712 23.3308 60.1932 22.9165C60.7152 22.494 61.1171 21.9015 61.3988 21.1392C61.6805 20.3769 61.8214 19.482 61.8214 18.4545C61.8214 17.4105 61.6805 16.5115 61.3988 15.7575C61.1253 15.0034 60.7235 14.4234 60.1932 14.0174C59.6712 13.6114 59.0414 13.4084 58.304 13.4084C57.5499 13.4084 56.9119 13.6155 56.3899 14.0298C55.8679 14.4441 55.4702 15.0283 55.1967 15.7823C54.9316 16.5363 54.799 17.4271 54.799 18.4545C54.799 19.482 54.9357 20.3769 55.2092 21.1392C55.4826 21.9015 55.8762 22.494 56.3899 22.9165C56.9119 23.3308 57.5499 23.538 58.304 23.538ZM79.2301 28.3604C77.2332 28.3604 75.5097 27.9669 74.0596 27.1797C72.6179 26.3842 71.5076 25.2532 70.7287 23.7866C69.9581 22.3117 69.5728 20.5592 69.5728 18.5291C69.5728 16.5571 69.9622 14.8336 70.7411 13.3587C71.52 11.8755 72.6179 10.7237 74.0348 9.90341C75.4517 9.07481 77.1213 8.66051 79.0437 8.66051C80.4026 8.66051 81.6455 8.8718 82.7723 9.29439C83.8992 9.71697 84.8728 10.3426 85.6932 11.1712C86.5135 11.9998 87.1515 13.0231 87.6072 14.2411C88.063 15.4509 88.2908 16.8388 88.2908 18.4048V19.9212H71.6981V16.3913H82.6356C82.6273 15.745 82.4741 15.1692 82.1758 14.6637C81.8775 14.1583 81.4673 13.7647 80.9453 13.483C80.4316 13.1929 79.8391 13.0479 79.1679 13.0479C78.4885 13.0479 77.8795 13.2012 77.3409 13.5078C76.8023 13.8061 76.3756 14.2163 76.0607 14.7383C75.7458 15.252 75.5801 15.8362 75.5635 16.4908V20.0827C75.5635 20.8616 75.7168 21.5452 76.0234 22.1335C76.33 22.7135 76.765 23.1651 77.3285 23.4883C77.8919 23.8114 78.5631 23.973 79.342 23.973C79.8805 23.973 80.3694 23.8984 80.8086 23.7493C81.2477 23.6001 81.6247 23.3806 81.9396 23.0906C82.2545 22.8005 82.4906 22.4442 82.6481 22.0217L88.2287 22.1832C87.9967 23.4344 87.4871 24.524 86.6999 25.4521C85.921 26.3718 84.8977 27.0885 83.6299 27.6023C82.3622 28.1077 80.8956 28.3604 79.2301 28.3604ZM99.0065 28.3604C96.993 28.3604 95.2654 27.9461 93.8236 27.1175C92.3902 26.2889 91.2881 25.1372 90.5175 23.6623C89.7469 22.1791 89.3616 20.4639 89.3616 18.5167C89.3616 16.5612 89.7469 14.846 90.5175 13.3711C91.2964 11.8879 92.4026 10.732 93.8361 9.90341C95.2778 9.07481 96.9972 8.66051 98.9941 8.66051C100.759 8.66051 102.296 8.97952 103.605 9.61754C104.923 10.2556 105.95 11.1587 106.688 12.3271C107.433 13.4871 107.827 14.8501 107.868 16.4162H102.188C102.072 15.4384 101.741 14.672 101.194 14.1168C100.655 13.5617 99.9511 13.2841 99.0811 13.2841C98.3768 13.2841 97.7595 13.483 97.2292 13.8807C96.6989 14.2701 96.2846 14.8501 95.9863 15.6207C95.6963 16.383 95.5513 17.3277 95.5513 18.4545C95.5513 19.5814 95.6963 20.5343 95.9863 21.3132C96.2846 22.0838 96.6989 22.668 97.2292 23.0657C97.7595 23.4551 98.3768 23.6499 99.0811 23.6499C99.6445 23.6499 100.142 23.5297 100.573 23.2894C101.012 23.0491 101.372 22.697 101.654 22.233C101.936 21.7607 102.114 21.1889 102.188 20.5178H107.868C107.81 22.0921 107.417 23.4676 106.688 24.6442C105.967 25.8208 104.952 26.7364 103.643 27.391C102.342 28.0373 100.796 28.3604 99.0065 28.3604ZM115.16 22.9911L115.185 15.745H116.03L121.399 8.90909H128.285L120.306 18.7031H118.702L115.16 22.9911ZM109.679 28V2.54545H115.757V28H109.679ZM121.536 28L116.54 20.0703L120.542 15.7575L128.558 28H121.536Z" fill="black"/>
</svg>
