<svg width="23" height="23" viewBox="0 0 23 23" fill="none" xmlns="http://www.w3.org/2000/svg">
<path d="M20.0339 21.22L20.2893 21.3903V21.0833V6.02929V6.02171C20.2893 5.47606 20.2893 5.05651 20.2619 4.72108C20.2342 4.38218 20.1777 4.11471 20.0565 3.87683C19.8517 3.47497 19.525 3.14825 19.1231 2.94349C18.8853 2.82229 18.6178 2.76581 18.2789 2.73812C17.9435 2.71071 17.5239 2.71071 16.9783 2.71071H16.9707H6.02927H6.02169C5.47605 2.71071 5.05649 2.71071 4.72106 2.73812C4.38216 2.76581 4.11469 2.82229 3.87682 2.94349C3.47496 3.14825 3.14824 3.47497 2.94348 3.87683C2.82227 4.11471 2.76579 4.38218 2.7381 4.72108C2.7107 5.05651 2.7107 5.47606 2.7107 6.02171V6.02929V21.0833V21.3903L2.96611 21.22L5.74998 19.3641L8.53385 21.22L8.62498 21.2808L8.71611 21.22L11.5 19.3641L14.2839 21.22L14.375 21.2808L14.4661 21.22L17.25 19.3641L20.0339 21.22Z" fill="#C344FF" stroke="#9C00E6" stroke-width="0.328571"/>
<rect x="4.92854" y="6.57129" width="13.1429" height="2.46429" rx="1.23214" fill="white"/>
<rect x="4.92854" y="10.6782" width="9.03572" height="2.46429" rx="1.23214" fill="white"/>
</svg>
