<svg width="30" height="30" viewBox="0 0 30 30" fill="none" xmlns="http://www.w3.org/2000/svg">
<path d="M0 13.3333H3.33333V16.6667H0V13.3333ZM13.3333 3.33333H16.6667V10H13.3333V3.33333ZM10 13.3333H16.6667V20H13.3333V16.6667H10V13.3333ZM20 13.3333H23.3333V16.6667H26.6667V13.3333H30V16.6667H26.6667V20H30V26.6667H26.6667V30H23.3333V26.6667H16.6667V30H13.3333V23.3333H20V20H23.3333V16.6667H20V13.3333ZM26.6667 26.6667V20H23.3333V26.6667H26.6667ZM20 0H30V10H20V0ZM23.3333 3.33333V6.66667H26.6667V3.33333H23.3333ZM0 0H10V10H0V0ZM3.33333 3.33333V6.66667H6.66667V3.33333H3.33333ZM0 20H10V30H0V20ZM3.33333 23.3333V26.6667H6.66667V23.3333H3.33333Z" fill="black"/>
</svg>
