<svg width="13" height="14" viewBox="0 0 13 14" fill="none" xmlns="http://www.w3.org/2000/svg">
<path d="M5.24998 9.8125V4.1875L8.99998 7M6.49998 0.75C5.67922 0.75 4.8665 0.911661 4.10821 1.22575C3.34993 1.53984 2.66093 2.00022 2.08057 2.58058C0.908465 3.75268 0.249985 5.3424 0.249985 7C0.249985 8.6576 0.908465 10.2473 2.08057 11.4194C2.66093 11.9998 3.34993 12.4602 4.10821 12.7742C4.8665 13.0883 5.67922 13.25 6.49998 13.25C8.15759 13.25 9.7473 12.5915 10.9194 11.4194C12.0915 10.2473 12.75 8.6576 12.75 7C12.75 6.17924 12.5883 5.36651 12.2742 4.60823C11.9601 3.84994 11.4998 3.16095 10.9194 2.58058C10.339 2.00022 9.65004 1.53984 8.89176 1.22575C8.13347 0.911661 7.32075 0.75 6.49998 0.75Z" fill="#C344FF"/>
</svg>
